<svg 
  width="100%" 
  height="auto"
  viewBox="0 0 369.6551724137931 54.7375942264745"
  xmlns="http://www.w3.org/2000/svg"
>
    viewBox="0 0 369.6551724137931 54.7375942264745" class="looka-1j8o68f">
    <defs id="SvgjsDefs3270"></defs>
    <g id="SvgjsG3271" featurekey="symbolFeature-0"
      transform="matrix(0.6705080880739689,0,0,0.6705080880739689,-3.353482025109233,-6.154593673928541)"
      fill="#006332">
      <path xmlns="http://www.w3.org/2000/svg"
        d="M94.294,51.007c-2.905-4.205-9.241-0.065-15.946,4.318c-1.861,1.217-3.746,2.391-5.586,3.405  c0.715,0.273,1.297,0.609,1.76,0.951c1.619,1.203,2.59,3.064,2.66,5.103c0.146,4.348-3.422,6.58-6.933,8.19  c-3.472,1.594-9.032,1.771-13.938,1.926c-1.01,0.033-1.998,0.064-2.94,0.105c-4.799,0.221-8.357,1.553-8.394,1.564  c-0.162,0.061-0.327,0.09-0.491,0.09c-0.559,0-1.086-0.338-1.295-0.891c-0.271-0.715,0.085-1.515,0.799-1.785  c0.16-0.063,3.986-1.504,9.256-1.744c0.956-0.043,1.956-0.074,2.979-0.107c4.645-0.146,9.906-0.313,12.871-1.674  c3.902-1.793,5.395-3.355,5.317-5.58c-0.024-0.699-0.257-2.018-1.543-2.975c-0.834-0.619-2.287-1.187-4.706-1.012  c-0.998,0.364-1.96,0.639-2.863,0.776c-7.503,1.154-13.994,0.494-19.829-2.633c-0.453-0.244-1.023-0.595-1.699-1.007  c-5.716-3.495-19.102-11.686-31.958,1.173h-0.001c0,0.002-0.001,0.002-0.001,0.002l-6.098,6.151  c-0.497,0.502-0.795,1.406-0.694,2.104l1.838,12.565l1.114,7.615c0.194,1.324,0.862,1.723,1.244,1.844  c0.112,0.035,0.257,0.064,0.431,0.064c0.42,0,0.997-0.172,1.646-0.859c0.019-0.02,1.883-1.985,4.095-3.727  c2.801-2.207,5.226-3.281,7.412-3.281c3.352,0,7.74,1.924,12.389,3.961c5.537,2.428,11.814,5.176,17.606,5.176  c18.167,0,33.382-16.43,39.173-27.473C94.9,57.757,95.771,53.145,94.294,51.007z">
      </path>
      <path xmlns="http://www.w3.org/2000/svg"
        d="M41.255,49.179h31.49c2.345,0,4.255-1.909,4.255-4.255v-31.49c0-2.346-1.91-4.255-4.255-4.255h-31.49  C38.91,9.179,37,11.088,37,13.434v31.49C37,47.27,38.91,49.179,41.255,49.179z M44.753,24.948c0-0.458,0.373-0.829,0.831-0.829  h6.357v-6.357c0-0.459,0.371-0.829,0.83-0.829h8.459c0.459,0,0.828,0.37,0.828,0.829v6.357h6.358c0.458,0,0.83,0.371,0.83,0.829  v8.459c0,0.459-0.372,0.83-0.83,0.83h-6.358v6.358c0,0.459-0.369,0.829-0.828,0.829h-8.459c-0.459,0-0.83-0.37-0.83-0.829v-6.358  h-6.357c-0.458,0-0.831-0.371-0.831-0.83V24.948z">
      </path>
    </g>
    <g id="SvgjsG3272" featurekey="fiAKjI-0"
      transform="matrix(1.3207770252114002,0,0,1.3207770252114002,77.5880335136172,-4.519657628976373)" fill="#006332">
      <path
        d="M10.722656 5.888672 l2.929688 0 l0 14.111328 l-2.929687 0 l0 -5.800781 l-5.966797 0 l0 5.800781 l-2.929687 0 l0 -14.111328 l2.929688 0 l0 5.761719 l5.966797 0 l0 -5.761719 z M26.748047 20 l-1.025391 -2.910156 l-5.927734 0 l-1.025391 2.910156 l-2.998047 0 l5.195313 -14.111328 l3.583984 0 l5.195313 14.111328 l-2.998047 0 z M20.654297 14.638672 l4.208984 0 l-2.099609 -5.986328 z M48.03711 20 l-2.919922 0 l-0.927734 -10.634766 l-3.574219 10.634766 l-1.894531 0 l-3.574219 -10.634766 l-0.9375 10.634766 l-2.929687 0 l1.181641 -14.111328 l4.179688 0 l3.007813 8.857422 l3.046875 -8.857422 l4.179688 0 z M56.972657 5.888672 c2.763672 0 4.482422 2.050781 4.482422 4.560547 c0 2.568359 -1.71875 4.492188 -4.482422 4.492188 l-2.939453 0 l0 5.058594 l-2.929687 0 l0 -14.111328 l5.869141 0 z M56.484375 12.490234 c1.464844 0 2.148438 -0.810547 2.148438 -2.080078 c0 -1.220703 -0.683594 -2.070312 -2.148437 -2.070312 l-2.451172 0 l0 4.150391 l2.451172 0 z M72.09961 5.888672 l0 2.578125 l-3.349609 0 l0 11.533203 l-2.900391 0 l0 -11.533203 l-3.369141 0 l0 -2.578125 l9.619141 0 z M80.566406 20.195313 c-4.150391 0 -7.216797 -2.832031 -7.216797 -7.255859 c0 -4.433594 3.066406 -7.246094 7.216797 -7.246094 c4.140625 0 7.207031 2.8125 7.207031 7.246094 c0 4.423828 -3.066406 7.255859 -7.207031 7.255859 z M80.566406 17.509766 c2.431641 0 4.296875 -1.708984 4.296875 -4.570312 c0 -2.851562 -1.865234 -4.550781 -4.296875 -4.550781 s-4.296875 1.699219 -4.296875 4.550781 c0 2.861328 1.865234 4.570313 4.296875 4.570313 z M100.107422 5.888672 l2.919922 0 l0 14.111328 l-3.388672 0 l-6.25 -10.087891 l0 10.087891 l-2.919922 0 l0 -14.111328 l3.349609 0 l6.289063 10.029297 l0 -10.029297 z M116.5625 20.195313 c-3.027344 0 -5.390625 -1.455078 -5.820312 -4.101562 l3.027344 -0.693359 c0.195313 1.582031 1.357422 2.402344 2.910156 2.402344 c1.191406 0 2.138672 -0.527344 2.128906 -1.71875 c-0.009766 -1.328125 -1.572266 -1.748047 -3.291016 -2.275391 c-2.070312 -0.644531 -4.287109 -1.40625 -4.287109 -4.003906 c0 -2.626953 2.148438 -4.111328 4.980469 -4.111328 c2.480469 0 4.980469 1.005859 5.546875 3.710938 l-2.832031 0.703125 c-0.263672 -1.40625 -1.210937 -2.021484 -2.539062 -2.021484 c-1.181641 0 -2.1875 0.488281 -2.1875 1.650391 c0 1.083984 1.386719 1.445313 2.988281 1.923828 c2.128906 0.644531 4.648438 1.464844 4.648438 4.277344 c0 2.998047 -2.509766 4.257813 -5.273437 4.257813 z M130.791016 20.195313 c-4.150391 0 -7.216797 -2.822266 -7.216797 -7.255859 s3.066406 -7.246094 7.216797 -7.246094 c3.144531 0 5.664063 1.611328 6.669922 4.287109 l-2.734375 0.996094 c-0.625 -1.640625 -2.119141 -2.587891 -3.935547 -2.587891 c-2.431641 0 -4.296875 1.699219 -4.296875 4.550781 s1.865234 4.560547 4.296875 4.560547 c1.816406 0 3.310547 -0.957031 3.935547 -2.597656 l2.734375 0.996094 c-1.005859 2.675781 -3.525391 4.296875 -6.669922 4.296875 z M139.863281 20 l0 -14.111328 l2.929688 0 l0 14.111328 l-2.929687 0 z M154.619141 8.466797 l-5.234375 0 l0 3.203125 l4.638672 0 l0 2.548828 l-4.638672 0 l0 3.193359 l5.234375 0 l0 2.587891 l-8.183594 0 l0 -14.111328 l8.183594 0 l0 2.578125 z M167.275391 5.888672 l2.919922 0 l0 14.111328 l-3.388672 0 l-6.25 -10.087891 l0 10.087891 l-2.919922 0 l0 -14.111328 l3.349609 0 l6.289063 10.029297 l0 -10.029297 z M182.03125 5.888672 l0 2.578125 l-3.349609 0 l0 11.533203 l-2.900391 0 l0 -11.533203 l-3.369141 0 l0 -2.578125 l9.619141 0 z M184.248047 20 l0 -14.111328 l2.929688 0 l0 14.111328 l-2.929687 0 z M199.140625 8.466797 l-5.371094 0 l0 3.203125 l4.638672 0 l0 2.548828 l-4.638672 0 l0 5.78125 l-2.949219 0 l0 -14.111328 l8.320313 0 l0 2.578125 z M201.640625 20 l0 -14.111328 l2.929688 0 l0 14.111328 l-2.929687 0 z M214.462891 20.195313 c-4.150391 0 -7.216797 -2.822266 -7.216797 -7.255859 s3.066406 -7.246094 7.216797 -7.246094 c3.144531 0 5.664063 1.611328 6.669922 4.287109 l-2.734375 0.996094 c-0.625 -1.640625 -2.119141 -2.587891 -3.935547 -2.587891 c-2.431641 0 -4.296875 1.699219 -4.296875 4.550781 s1.865234 4.560547 4.296875 4.560547 c1.816406 0 3.310547 -0.957031 3.935547 -2.597656 l2.734375 0.996094 c-1.005859 2.675781 -3.525391 4.296875 -6.669922 4.296875 z">
      </path>
    </g>
    <g id="SvgjsG3273" featurekey="sloganFeature-0"
      transform="matrix(0.6612471344055456,0,0,0.6612471344055456,78.87587952467264,38.16476649432495)" fill="#000000">
      <path
        d="M15.08 5.8 l0.22 0 l0 14.2 l-1.78 0 l0 -9.42 l-4.96 6.48 l-0.12 0 l-4.96 -6.46 l0 9.4 l-1.78 0 l0 -14.2 l0.2 0 l6.6 8.4 z M29.627 18.28 l0.12 1.72 l-8.52 0 l0 -14 l8.12 0 l0.14 1.72 l-6.46 0 l0 3.42 l4.38 0 l0 1.72 l-4.38 0 l0 5.42 l6.6 0 z M39.694 6 c4.64 0 7.2 2.84 7.2 7 s-2.56 7 -7.2 7 l-4.8 0 l0 -14 l4.8 0 z M39.794 18.28 c3.4 0 5.3 -2.12 5.3 -5.28 c0 -3.18 -1.9 -5.28 -5.3 -5.28 l-3.1 0 l0 10.56 l3.1 0 z M52.281 20 l0 -14 l1.8 0 l0 14 l-1.8 0 z M59.448 13 c0 -4.04 3.18 -7.2 7.18 -7.2 c1.68 0 3.28 0.56 4.7 1.64 l-0.9 1.4 c-1.18 -0.9 -2.4 -1.34 -3.8 -1.34 c-3.02 0 -5.38 2.42 -5.38 5.5 s2.38 5.5 5.38 5.5 c1.52 0 2.82 -0.48 3.8 -1.42 l0.92 1.38 c-1.22 1.1 -2.94 1.74 -4.72 1.74 c-4 0 -7.18 -3.18 -7.18 -7.2 z M85.695 20 l-1.22 -2.84 l-6.24 0 l-1.22 2.84 l-1.92 0 l6.16 -14.2 l0.2 0 l6.16 14.2 l-1.92 0 z M78.955 15.48 l4.8 0 l-2.4 -5.54 z M93.962 18.28 l5.92 0 l-0.12 1.72 l-7.6 0 l0 -14 l1.8 0 l0 12.28 z M113.216 18.54 c0.88 0.82 2.7 1.66 4.52 1.66 c2.8 0 4.58 -1.44 4.58 -3.7 c0 -1.84 -0.88 -2.92 -3.92 -4.64 c-2.32 -1.34 -2.88 -1.78 -2.88 -2.66 c0 -0.94 0.88 -1.68 2.36 -1.68 c0.86 0 2 0.38 2.66 0.8 l0.96 -1.44 c-0.94 -0.62 -2.42 -1.08 -3.6 -1.08 c-2.58 0 -4.3 1.48 -4.3 3.42 c0 1.72 0.86 2.58 3.5 4.02 c2.34 1.28 3.3 2.22 3.3 3.24 c0 1.2 -1.04 1.92 -2.66 1.92 c-1.4 0 -2.8 -0.66 -3.5 -1.3 z M127.323 14.46 l0 -8.46 l1.8 0 l0 8.32 c0 2.7 1.56 4.08 3.76 4.08 s3.78 -1.38 3.78 -4.08 l0 -8.32 l1.78 0 l0 8.46 c0 3.64 -2.08 5.74 -5.56 5.74 c-3.46 0 -5.56 -2.1 -5.56 -5.74 z M149.55 6 c3.28 0 4.82 2.48 4.82 5.1 s-1.54 5.1 -4.82 5.1 l-3.5 0 l0 3.8 l-1.8 0 l0 -14 l5.3 0 z M149.47 14.48 c1.84 0 3.06 -1.42 3.06 -3.38 s-1.22 -3.38 -3.06 -3.38 l-3.42 0 l0 6.76 l3.42 0 z M165.037 6 c3.28 0 4.82 2.48 4.82 5.1 s-1.54 5.1 -4.82 5.1 l-3.5 0 l0 3.8 l-1.8 0 l0 -14 l5.3 0 z M164.957 14.48 c1.84 0 3.06 -1.42 3.06 -3.38 s-1.22 -3.38 -3.06 -3.38 l-3.42 0 l0 6.76 l3.42 0 z M177.024 18.28 l5.92 0 l-0.12 1.72 l-7.6 0 l0 -14 l1.8 0 l0 12.28 z M187.671 20 l0 -14 l1.8 0 l0 14 l-1.8 0 z M203.798 18.28 l0.12 1.72 l-8.52 0 l0 -14 l8.12 0 l0.14 1.72 l-6.46 0 l0 3.42 l4.38 0 l0 1.72 l-4.38 0 l0 5.42 l6.6 0 z M219.245 11.06 c0 2.26 -1.06 4.2 -3.24 4.84 l3.02 4.1 l-2.16 0 l-2.86 -3.88 l-3.14 0 l0 3.88 l-1.8 0 l0 -14 l5.28 0 c3.3 0 4.9 2.28 4.9 5.06 z M210.865 7.68 l0 6.74 l3.4 0 c2.26 0 3.18 -1.66 3.18 -3.36 s-0.92 -3.38 -3.18 -3.38 l-3.4 0 z M242.539 17.44 l2.04 2.36 l0 0.2 l-2 0 l-1.06 -1.22 c-0.98 0.9 -2.3 1.42 -3.62 1.42 c-2.66 0 -4.38 -1.64 -4.38 -3.76 c0 -1.82 1.16 -2.76 2.22 -3.56 l0.38 -0.3 c-0.96 -1.1 -1.9 -2.12 -1.9 -3.56 c0 -1.68 1.52 -3.22 3.56 -3.22 c2 0 3.42 1.34 3.42 2.94 c0 1.84 -1.26 2.86 -2.16 3.58 l-0.56 0.44 l2.82 3.26 c0.08 -0.28 0.12 -0.56 0.12 -0.84 c0 -0.7 -0.1 -1.34 -0.2 -1.74 l1.62 -0.24 c0.08 0.32 0.24 1.06 0.24 2.08 c0 0.8 -0.2 1.52 -0.54 2.16 z M237.399 11.52 l0.04 0.04 l0.46 -0.36 c0.92 -0.7 1.6 -1.28 1.6 -2.08 c0 -0.84 -0.64 -1.74 -1.72 -1.74 c-0.96 0 -1.86 0.68 -1.86 1.74 c0 0.98 1 1.84 1.48 2.4 z M237.759 18.54 c0.92 0 1.9 -0.42 2.6 -1.08 l-3.2 -3.68 l-0.2 0.14 c-0.9 0.72 -1.68 1.38 -1.68 2.52 c0 1.04 0.98 2.1 2.48 2.1 z M267.333 7.72 l-4.08 0 l0 12.28 l-1.8 0 l0 -12.28 l-4.1 0 l0.12 -1.72 l9.74 0 z M282.24 11.06 c0 2.26 -1.06 4.2 -3.24 4.84 l3.02 4.1 l-2.16 0 l-2.86 -3.88 l-3.14 0 l0 3.88 l-1.8 0 l0 -14 l5.28 0 c3.3 0 4.9 2.28 4.9 5.06 z M273.86 7.68 l0 6.74 l3.4 0 c2.26 0 3.18 -1.66 3.18 -3.36 s-0.92 -3.38 -3.18 -3.38 l-3.4 0 z M296.767 20 l-1.22 -2.84 l-6.24 0 l-1.22 2.84 l-1.92 0 l6.16 -14.2 l0.2 0 l6.16 14.2 l-1.92 0 z M290.027 15.48 l4.8 0 l-2.4 -5.54 z M303.234 20 l0 -14 l1.8 0 l0 14 l-1.8 0 z M320.561 6 l1.8 0 l0 14.2 l-0.22 0 l-9.4 -9.98 l0 9.78 l-1.78 0 l0 -14.2 l0.2 0 l9.4 9.98 l0 -9.78 z M336.688 18.28 l0.12 1.72 l-8.52 0 l0 -14 l8.12 0 l0.14 1.72 l-6.46 0 l0 3.42 l4.38 0 l0 1.72 l-4.38 0 l0 5.42 l6.6 0 z M352.135 11.06 c0 2.26 -1.06 4.2 -3.24 4.84 l3.02 4.1 l-2.16 0 l-2.86 -3.88 l-3.14 0 l0 3.88 l-1.8 0 l0 -14 l5.28 0 c3.3 0 4.9 2.28 4.9 5.06 z M343.755 7.68 l0 6.74 l3.4 0 c2.26 0 3.18 -1.66 3.18 -3.36 s-0.92 -3.38 -3.18 -3.38 l-3.4 0 z">
      </path>
    </g>
  </svg>